<?xml version="1.0" encoding="UTF-8"?>
<svg height="128px" viewBox="0 0 128 128" width="128px" xmlns="http://www.w3.org/2000/svg" xmlns:xlink="http://www.w3.org/1999/xlink">
    <linearGradient id="a" gradientTransform="matrix(0.343059 0 0 0.33254 11.611289 7.877823)" gradientUnits="userSpaceOnUse" x1="0" x2="305" y1="325" y2="325">
        <stop offset="0.0102852" stop-color="#959595"/>
        <stop offset="0.0622696" stop-color="#c1c1c1"/>
        <stop offset="0.1911" stop-color="#636363"/>
        <stop offset="0.54595" stop-color="#636363"/>
        <stop offset="0.695122" stop-color="#636363"/>
        <stop offset="0.930182" stop-color="#c9c9c9"/>
        <stop offset="0.984426" stop-color="#adadad"/>
    </linearGradient>
    <path d="m 13.300781 27.300781 c 0.109375 -5.800781 4.992188 -10.445312 10.972657 -10.445312 h 79.441406 c 6 0 10.886718 4.667969 10.976562 10.480469 l 1.210938 77.816406 c 0.09375 5.9375 -4.847656 10.800781 -10.976563 10.800781 h -82.132812 c -6.140625 0 -11.089844 -4.882813 -10.976563 -10.835937 z m 0 0" fill="url(#a)"/>
    <path d="m 21.382812 11.753906 h 85.066407 c 5.199219 0 9.410156 3.195313 9.410156 7.132813 v 79.949219 c 0 3.941406 -4.210937 7.132812 -9.410156 7.132812 h -85.066407 c -5.195312 0 -9.40625 -3.191406 -9.40625 -7.132812 v -79.949219 c 0 -3.9375 4.210938 -7.132813 9.40625 -7.132813 z m 0 0" fill="#b5b6ae"/>
    <path d="m 64.050781 21.59375 h 0.300781 c 21.679688 0 39.253907 16.203125 39.253907 36.191406 c 0 19.988282 -17.574219 36.191406 -39.253907 36.191406 h -0.300781 c -21.679687 0 -39.253906 -16.203124 -39.253906 -36.191406 c 0 -19.988281 17.574219 -36.191406 39.253906 -36.191406 z m 0 0" fill="#fbedcf" stroke="#000000" stroke-width="1.99999"/>
    <path d="m 63.726562 29.992188 c -0.089843 0.039062 -0.207031 0.128906 -0.257812 0.195312 c -0.09375 0.121094 -0.101562 0.183594 -0.113281 2.027344 c -0.011719 1.203125 0.003906 1.964844 0.03125 2.066406 c 0.03125 0.09375 0.117187 0.222656 0.195312 0.292969 c 0.136719 0.117187 0.175781 0.128906 0.46875 0.128906 s 0.332031 -0.011719 0.46875 -0.128906 c 0.082031 -0.070313 0.164063 -0.195313 0.195313 -0.28125 c 0.03125 -0.097657 0.039062 -0.828125 0.03125 -2.070313 c -0.015625 -1.851562 -0.019532 -1.914062 -0.113282 -2.035156 c -0.121093 -0.15625 -0.371093 -0.273438 -0.582031 -0.273438 c -0.089843 0 -0.234375 0.035157 -0.324219 0.078126 z m 0 0"/>
    <path d="m 49.164062 33.558594 c -0.351562 0.097656 -0.578124 0.472656 -0.464843 0.777344 c 0.070312 0.191406 1.8125 3.0625 1.992187 3.289062 c 0.230469 0.285156 0.660156 0.332031 0.953125 0.101562 c 0.289063 -0.21875 0.347657 -0.492187 0.183594 -0.792968 c -0.101563 -0.183594 -1.824219 -2.992188 -1.929687 -3.152344 c -0.070313 -0.105469 -0.402344 -0.273438 -0.519532 -0.265625 c -0.035156 0 -0.128906 0.023437 -0.214844 0.042969 z m 0 0"/>
    <path d="m 78.445312 33.585938 c -0.183593 0.082031 -0.238281 0.15625 -1.371093 2.097656 c -0.738281 1.269531 -0.847657 1.484375 -0.847657 1.648437 c 0 0.5 0.679688 0.839844 1.070313 0.535157 c 0.117187 -0.089844 1.464844 -2.324219 2.027344 -3.347657 c 0.148437 -0.28125 0.128906 -0.535156 -0.054688 -0.730469 c -0.253906 -0.265624 -0.535156 -0.339843 -0.824219 -0.203124 z m 0 0"/>
    <path d="m 89.324219 43.488281 c -0.121094 0.039063 -3.261719 1.75 -3.589844 1.953125 c -0.199219 0.125 -0.296875 0.292969 -0.296875 0.507813 c 0 0.359375 0.246094 0.609375 0.621094 0.636719 l 0.25 0.023437 l 1.785156 -0.980469 c 0.996094 -0.550781 1.851562 -1.050781 1.941406 -1.132812 c 0.296875 -0.292969 0.171875 -0.804688 -0.246094 -0.976563 c -0.214843 -0.09375 -0.277343 -0.097656 -0.464843 -0.03125 z m 0 0"/>
    <path d="m 38.238281 43.546875 c -0.15625 0.097656 -0.308593 0.308594 -0.347656 0.503906 c -0.046875 0.226563 0.082031 0.4375 0.347656 0.589844 c 0.738281 0.414063 3.59375 1.835937 3.730469 1.855469 c 0.554688 0.085937 0.992188 -0.640625 0.613281 -1.023438 c -0.105469 -0.105468 -2.726562 -1.480468 -3.585937 -1.886718 c -0.265625 -0.125 -0.574219 -0.136719 -0.757813 -0.039063 z m 0 0"/>
    <path d="m 34.40625 57.046875 c -0.578125 0.15625 -0.566406 1.058594 0.023438 1.210937 c 0.105468 0.023438 0.960937 0.042969 2.195312 0.042969 c 1.828125 0 2.035156 -0.007812 2.183594 -0.078125 c 0.46875 -0.21875 0.507812 -0.855468 0.0625 -1.121094 c -0.117188 -0.074218 -0.292969 -0.078124 -2.222656 -0.089843 c -1.191407 -0.003907 -2.160157 0.007812 -2.242188 0.035156 z m 0 0"/>
    <path d="m 89.210938 57.082031 c -0.234376 0.101563 -0.359376 0.296875 -0.359376 0.570313 c 0 0.28125 0.125 0.464844 0.375 0.566406 c 0.191407 0.082031 0.308594 0.085938 2.339844 0.074219 c 2.078125 -0.015625 2.140625 -0.019531 2.269532 -0.105469 c 0.386718 -0.261719 0.386718 -0.816406 0 -1.074219 c -0.128907 -0.085937 -0.191407 -0.089843 -2.277344 -0.101562 c -2.03125 -0.011719 -2.15625 -0.003907 -2.347656 0.070312 z m 0 0"/>
    <path d="m 40.003906 69.675781 c -0.992187 0.546875 -1.847656 1.046875 -1.933594 1.128907 c -0.3125 0.304687 -0.164062 0.839843 0.289063 0.996093 c 0.167969 0.058594 0.238281 0.0625 0.371094 0.023438 c 0.144531 -0.042969 3.234375 -1.714844 3.636719 -1.964844 c 0.554687 -0.347656 0.28125 -1.15625 -0.390626 -1.15625 c -0.164062 0 -0.425781 0.128906 -1.972656 0.972656 z m 0 0"/>
    <path d="m 85.855469 68.882812 c -0.347657 0.183594 -0.472657 0.621094 -0.261719 0.902344 c 0.078125 0.113282 0.511719 0.359375 1.859375 1.070313 c 0.96875 0.507812 1.839844 0.945312 1.9375 0.96875 c 0.152344 0.046875 0.203125 0.039062 0.390625 -0.042969 c 0.539062 -0.242188 0.574219 -0.84375 0.066406 -1.132812 c -0.40625 -0.234376 -3.214844 -1.703126 -3.398437 -1.777344 c -0.246094 -0.105469 -0.386719 -0.101563 -0.59375 0.011718 z m 0 0"/>
    <path d="m 76.496094 77.367188 c -0.324219 0.160156 -0.472656 0.476562 -0.347656 0.753906 c 0.078124 0.171875 1.78125 2.996094 2.011718 3.332031 c 0.253906 0.371094 0.722656 0.421875 1.0625 0.113281 c 0.179688 -0.160156 0.253906 -0.375 0.195313 -0.570312 c -0.023438 -0.074219 -0.503907 -0.902344 -1.066407 -1.828125 c -1.105468 -1.8125 -1.167968 -1.886719 -1.511718 -1.886719 c -0.09375 0.007812 -0.25 0.042969 -0.34375 0.085938 z m 0 0"/>
    <path d="m 51.054688 77.5 c -0.097657 0.054688 -0.488282 0.601562 -1.265626 1.761719 c -1.019531 1.523437 -1.128906 1.699219 -1.128906 1.878906 c -0.007812 0.355469 0.300782 0.605469 0.742188 0.605469 c 0.179687 0 0.246094 -0.027344 0.382812 -0.144532 c 0.179688 -0.148437 2.214844 -3.164062 2.308594 -3.414062 c 0.191406 -0.507812 -0.535156 -0.988281 -1.039062 -0.6875 z m 0 0"/>
    <path d="m 63.742188 80.570312 c -0.148438 0.0625 -0.339844 0.296876 -0.375 0.453126 c -0.011719 0.078124 -0.023438 1 -0.011719 2.054687 c 0.011719 1.851563 0.019531 1.914063 0.113281 2.035156 c 0.28125 0.355469 0.882812 0.355469 1.164062 0 c 0.09375 -0.121093 0.097657 -0.183593 0.113282 -2.058593 c 0.007812 -1.253907 0 -1.992188 -0.03125 -2.089844 c -0.03125 -0.085938 -0.113282 -0.210938 -0.195313 -0.28125 c -0.117187 -0.101563 -0.1875 -0.125 -0.40625 -0.136719 c -0.152343 -0.007813 -0.316406 0.003906 -0.371093 0.023437 z m 0 0"/>
    <path d="m 63.824219 28.164062 c 13.957031 0 25.269531 10.429688 25.269531 23.296876 c 0 12.867187 -11.3125 23.296874 -25.269531 23.296874 c -13.953125 0 -25.265625 -10.429687 -25.265625 -23.296874 c 0 -12.867188 11.3125 -23.296876 25.265625 -23.296876 z m 0 0" fill="#b5b6ae"/>
    <path d="m 88.867188 54.632812 c -1.675782 11.394532 -12.210938 20.121094 -25.042969 20.121094 c -12.585938 0 -22.96875 -8.398437 -24.9375 -19.472656 c -0.09375 0.804688 -0.136719 1.625 -0.136719 2.457031 c 0 12.835938 11.222656 23.167969 25.167969 23.167969 c 13.945312 0 25.171875 -10.332031 25.171875 -23.167969 c 0 -1.054687 -0.078125 -2.089843 -0.222656 -3.105469 z m 0 0" fill="#848484"/>
    <path d="m 64.078125 73.277344 l 1.167969 -1.667969 l -2.261719 -0.058594 z m 0 0"/>
</svg>
