<svg width="471" height="147" viewBox="0 0 471 147" fill="none" xmlns="http://www.w3.org/2000/svg">
<rect width="470.721" height="69.6088" rx="4" fill="#26823B" fill-opacity="0.14"/>
<rect y="76.5008" width="470.721" height="69.6088" rx="4" fill="url(#paint0_linear_2026_836)" fill-opacity="0.14"/>
<path d="M15.5917 22.4162C15.5917 20.4899 17.1533 18.9283 19.0796 18.9283H189.32C191.247 18.9283 192.808 20.4899 192.808 22.4162V31.1544C192.808 33.0807 191.247 34.6422 189.32 34.6422H19.0796C17.1533 34.6422 15.5917 33.0807 15.5917 31.1544V22.4162Z" fill="#26823B" fill-opacity="0.3"/>
<path d="M15.5917 98.917C15.5917 96.9907 17.1533 95.4291 19.0796 95.4291H189.32C191.247 95.4291 192.808 96.9907 192.808 98.917V107.655C192.808 109.581 191.247 111.143 189.32 111.143H19.0796C17.1533 111.143 15.5917 109.581 15.5917 107.655V98.917Z" fill="#26823B" fill-opacity="0.3"/>
<path d="M330.176 27.186C330.176 25.2597 331.738 23.6981 333.664 23.6981L409.876 23.6968C411.802 23.6968 413.364 25.2583 413.364 27.1846V42.423C413.364 44.3492 411.802 45.9108 409.876 45.9108L333.664 45.9121C331.738 45.9121 330.176 44.3505 330.176 42.4243L330.176 27.186Z" fill="#26823B" fill-opacity="0.3"/>
<path d="M330.176 103.687C330.176 101.76 331.738 100.199 333.664 100.199L409.876 100.198C411.802 100.198 413.364 101.759 413.364 103.685V118.924C413.364 120.85 411.802 122.412 409.876 122.412L333.664 122.413C331.738 122.413 330.176 120.851 330.176 118.925L330.176 103.687Z" fill="url(#paint1_linear_2026_836)" fill-opacity="0.3"/>
<path d="M15.5917 43.0141C15.5917 41.8062 16.5709 40.827 17.7788 40.827L69.5449 40.827C70.7528 40.827 71.732 41.8062 71.732 43.0141V48.4934C71.732 49.7013 70.7528 50.6805 69.5449 50.6805H17.7788C16.5709 50.6805 15.5917 49.7013 15.5917 48.4934V43.0141Z" fill="#26823B" fill-opacity="0.15"/>
<path d="M76.1298 43.0141C76.1298 41.8062 77.1089 40.827 78.3168 40.827L130.083 40.827C131.291 40.827 132.27 41.8062 132.27 43.0141V48.4934C132.27 49.7013 131.291 50.6805 130.083 50.6805H78.3168C77.1089 50.6805 76.1298 49.7013 76.1298 48.4934V43.0141Z" fill="#26823B" fill-opacity="0.15"/>
<path d="M136.668 43.0141C136.668 41.8062 137.647 40.827 138.855 40.827L190.621 40.827C191.829 40.827 192.808 41.8062 192.808 43.0141V48.4934C192.808 49.7013 191.829 50.6805 190.621 50.6805H138.855C137.647 50.6805 136.668 49.7013 136.668 48.4934V43.0141Z" fill="#26823B" fill-opacity="0.15"/>
<path d="M15.5917 119.515C15.5917 118.307 16.5709 117.328 17.7788 117.328L69.5449 117.328C70.7528 117.328 71.732 118.307 71.732 119.515V124.994C71.732 126.202 70.7528 127.181 69.5449 127.181H17.7788C16.5709 127.181 15.5917 126.202 15.5917 124.994V119.515Z" fill="url(#paint2_linear_2026_836)" fill-opacity="0.15"/>
<path d="M75.732 119.515C75.732 118.307 76.7112 117.328 77.9191 117.328L129.685 117.328C130.893 117.328 131.872 118.307 131.872 119.515V124.994C131.872 126.202 130.893 127.181 129.685 127.181H77.919C76.7112 127.181 75.732 126.202 75.732 124.994V119.515Z" fill="url(#paint3_linear_2026_836)" fill-opacity="0.15"/>
<path d="M135.872 119.515C135.872 118.307 136.851 117.328 138.059 117.328L189.825 117.328C191.033 117.328 192.013 118.307 192.013 119.515V124.994C192.013 126.202 191.033 127.181 189.825 127.181H138.059C136.851 127.181 135.872 126.202 135.872 124.994V119.515Z" fill="url(#paint4_linear_2026_836)" fill-opacity="0.15"/>
<path fill-rule="evenodd" clip-rule="evenodd" d="M454.904 33.2122C454.904 26.2519 449.261 20.6094 442.301 20.6094H439.09C432.13 20.6094 426.487 26.2519 426.487 33.2122V36.3966C426.487 43.3569 432.13 48.9994 439.09 48.9994H442.301C449.261 48.9994 454.904 43.3569 454.904 36.3966V33.2122ZM447.796 34.8044C447.811 37.1601 438.39 41.9386 437.145 40.9541C435.9 39.9695 435.574 29.6251 437.145 28.6548C438.716 27.6846 447.781 32.4487 447.796 34.8044Z" fill="#26823B" fill-opacity="0.3"/>
<path fill-rule="evenodd" clip-rule="evenodd" d="M454.904 109.713C454.904 102.753 449.261 97.1102 442.301 97.1102H439.09C432.13 97.1102 426.487 102.753 426.487 109.713V112.897C426.487 119.858 432.13 125.5 439.09 125.5H442.301C449.261 125.5 454.904 119.858 454.904 112.897V109.713ZM447.796 111.305C447.811 113.661 438.39 118.439 437.145 117.455C435.9 116.47 435.574 106.126 437.145 105.156C438.716 104.185 447.781 108.949 447.796 111.305Z" fill="url(#paint5_linear_2026_836)" fill-opacity="0.3"/>
<defs>
<linearGradient id="paint0_linear_2026_836" x1="335.248" y1="76.5008" x2="335.248" y2="146.11" gradientUnits="userSpaceOnUse">
<stop stop-color="#26823B"/>
<stop offset="1" stop-color="#26823B" stop-opacity="0"/>
</linearGradient>
<linearGradient id="paint1_linear_2026_836" x1="362.56" y1="100.198" x2="362.56" y2="122.413" gradientUnits="userSpaceOnUse">
<stop stop-color="#26823B"/>
<stop offset="1" stop-color="#26823B" stop-opacity="0"/>
</linearGradient>
<linearGradient id="paint2_linear_2026_836" x1="40.695" y1="117.328" x2="41.0115" y2="127.181" gradientUnits="userSpaceOnUse">
<stop stop-color="#26823B"/>
<stop offset="1" stop-color="#26823B" stop-opacity="0"/>
</linearGradient>
<linearGradient id="paint3_linear_2026_836" x1="100.835" y1="117.328" x2="101.152" y2="127.181" gradientUnits="userSpaceOnUse">
<stop stop-color="#26823B"/>
<stop offset="1" stop-color="#26823B" stop-opacity="0"/>
</linearGradient>
<linearGradient id="paint4_linear_2026_836" x1="160.976" y1="117.328" x2="161.292" y2="127.181" gradientUnits="userSpaceOnUse">
<stop stop-color="#26823B"/>
<stop offset="1" stop-color="#26823B" stop-opacity="0"/>
</linearGradient>
<linearGradient id="paint5_linear_2026_836" x1="440.696" y1="97.1102" x2="440.696" y2="125.5" gradientUnits="userSpaceOnUse">
<stop stop-color="#26823B"/>
<stop offset="1" stop-color="#26823B" stop-opacity="0"/>
</linearGradient>
</defs>
</svg>
