<svg width="206" height="168" viewBox="0 0 206 168" fill="none" xmlns="http://www.w3.org/2000/svg">
<path d="M41.4322 76.6865C50.8018 76.6865 58.8544 77.8719 62.379 79.5681C63.6002 80.1558 64.2776 80.8051 64.278 81.4874C64.278 84.1392 54.0496 86.29 41.4322 86.29V84.5553C47.6579 84.5553 53.2437 84.0224 57.2291 83.1848C59.2361 82.763 60.7465 82.2837 61.7115 81.8042C61.9456 81.6879 62.1257 81.5795 62.2638 81.4874C62.1087 81.384 61.9006 81.2634 61.6268 81.1317C60.1126 80.4029 57.4341 79.7107 53.8563 79.2089C50.3225 78.7133 46.0486 78.4212 41.4322 78.4212C32.6929 78.4212 25.3335 79.4679 21.8322 80.8708C21.2659 81.0977 20.8653 81.3095 20.5989 81.4874C20.7371 81.5797 20.9182 81.6875 21.1529 81.8042C22.1179 82.2837 23.6284 82.763 25.6353 83.1848C29.6207 84.0224 35.2065 84.5553 41.4322 84.5553V86.29L39.0961 86.2646C27.5761 86.0187 18.5864 83.9734 18.5864 81.4874C18.5868 80.7842 19.3062 80.1157 20.5989 79.5138L21.1885 79.2614C25.008 77.7312 32.6399 76.6865 41.4322 76.6865Z" fill="#2EC27E"/>
<path d="M156.027 76.6865C165.397 76.6865 173.449 77.8719 176.974 79.5681C178.195 80.1558 178.872 80.8051 178.873 81.4874C178.873 84.1392 168.644 86.29 156.027 86.29V84.5553C162.253 84.5553 167.839 84.0224 171.824 83.1848C173.831 82.763 175.341 82.2837 176.306 81.8042C176.54 81.6879 176.721 81.5795 176.859 81.4874C176.704 81.384 176.495 81.2634 176.222 81.1317C174.707 80.4029 172.029 79.7107 168.451 79.2089C164.917 78.7133 160.643 78.4212 156.027 78.4212C147.288 78.4212 139.928 79.4679 136.427 80.8708C135.861 81.0977 135.46 81.3095 135.194 81.4874C135.332 81.5797 135.513 81.6875 135.748 81.8042C136.713 82.2837 138.223 82.763 140.23 83.1848C144.216 84.0224 149.801 84.5553 156.027 84.5553V86.29L153.691 86.2646C142.171 86.0187 133.181 83.9734 133.181 81.4874C133.182 80.7842 133.901 80.1157 135.194 79.5138L135.783 79.2614C139.603 77.7312 147.235 76.6865 156.027 76.6865Z" fill="#2EC27E"/>
<path d="M79.147 97.8285C79.147 102.234 62.2961 105.805 41.5096 105.805C20.723 105.805 3.87219 102.234 3.87219 97.8285C3.87219 93.4231 20.723 89.8518 41.5096 89.8518C62.2961 89.8518 79.147 93.4231 79.147 97.8285Z" fill="#2EC27E" fill-opacity="0.6"/>
<path d="M77.4121 97.829C77.4061 97.7971 77.3653 97.6652 77.1343 97.4259C76.8211 97.1015 76.2707 96.7045 75.4114 96.2739C73.6987 95.4159 71.1071 94.5941 67.7628 93.8853C61.102 92.4737 51.8195 91.5866 41.5103 91.5865C31.2007 91.5865 21.9172 92.4737 15.2561 93.8853C11.9118 94.5941 9.32028 95.4158 7.60755 96.2739C6.74822 96.7045 6.19787 97.1015 5.88471 97.4259C5.57953 97.742 5.60665 97.8709 5.60689 97.829C5.61355 97.8627 5.65638 97.994 5.88471 98.2305C6.19787 98.5549 6.74822 98.9519 7.60755 99.3825C9.32028 100.241 11.9116 101.062 15.2561 101.771C21.9172 103.183 31.2007 104.07 41.5103 104.07V105.805L39.5723 105.794C20.0062 105.584 4.38201 102.208 3.88405 98.034L3.87219 97.829C3.87219 93.4237 20.7238 89.8518 41.5103 89.8518L43.4466 89.862C63.333 90.0756 79.1468 93.5613 79.1468 97.829L79.1349 98.034C78.6206 102.344 61.9723 105.804 41.5103 105.805V104.07C51.8196 104.07 61.102 103.183 67.7628 101.771C71.1072 101.062 73.6987 100.241 75.4114 99.3825C76.2707 98.9519 76.8211 98.5549 77.1343 98.2305C77.3626 97.994 77.4054 97.8627 77.4121 97.829Z" fill="#2EC27E"/>
<path d="M193.742 97.8285C193.742 102.234 176.891 105.805 156.104 105.805C135.318 105.805 118.467 102.234 118.467 97.8285C118.467 93.4231 135.318 89.8518 156.104 89.8518C176.891 89.8518 193.742 93.4231 193.742 97.8285Z" fill="#2EC27E" fill-opacity="0.6"/>
<path d="M192.007 97.829C192.001 97.7971 191.96 97.6652 191.729 97.4259C191.416 97.1015 190.865 96.7045 190.006 96.2739C188.293 95.4159 185.702 94.5941 182.357 93.8853C175.697 92.4737 166.414 91.5866 156.105 91.5865C145.795 91.5865 136.512 92.4737 129.851 93.8853C126.506 94.5941 123.915 95.4158 122.202 96.2739C121.343 96.7045 120.792 97.1015 120.479 97.4259C120.174 97.742 120.201 97.8709 120.201 97.829C120.208 97.8627 120.251 97.994 120.479 98.2305C120.792 98.5549 121.343 98.9519 122.202 99.3825C123.915 100.241 126.506 101.062 129.851 101.771C136.512 103.183 145.795 104.07 156.105 104.07V105.805L154.167 105.794C134.601 105.584 118.977 102.208 118.479 98.034L118.467 97.829C118.467 93.4237 135.318 89.8518 156.105 89.8518L158.041 89.862C177.928 90.0756 193.741 93.5613 193.741 97.829L193.73 98.034C193.215 102.344 176.567 105.804 156.105 105.805V104.07C166.414 104.07 175.697 103.183 182.357 101.771C185.702 101.062 188.293 100.241 190.006 99.3825C190.865 98.9519 191.416 98.5549 191.729 98.2305C191.957 97.994 192 97.8627 192.007 97.829Z" fill="#2EC27E"/>
<path d="M41.4328 76.6865C50.8017 76.6866 58.8532 77.872 62.3779 79.5681C74.7221 86.6272 83.0197 99.7574 83.0197 114.789C83.0196 137.286 64.4339 155.524 41.509 155.524C18.5842 155.523 0.000145769 137.286 0 114.789C0 99.5366 8.54211 86.2423 21.1873 79.2614C25.0068 77.7311 32.6401 76.6865 41.4328 76.6865ZM41.4328 78.4212C32.7697 78.4212 25.4633 79.4508 21.9259 80.8352C9.8559 87.5436 1.73469 100.245 1.73469 114.789C1.73484 136.297 19.5113 153.789 41.509 153.789C63.5068 153.789 81.2849 136.297 81.285 114.789C81.285 100.442 73.382 87.8886 61.5817 81.1113C60.0599 80.3904 57.4 79.7059 53.8569 79.2089C50.3232 78.7133 46.049 78.4212 41.4328 78.4212Z" fill="#2EC27E"/>
<path d="M156.028 76.6865C165.396 76.6866 173.448 77.872 176.973 79.5681C189.317 86.6272 197.614 99.7574 197.614 114.789C197.614 137.286 179.029 155.524 156.104 155.524C133.179 155.523 114.595 137.286 114.595 114.789C114.595 99.5366 123.137 86.2423 135.782 79.2614C139.601 77.7311 147.235 76.6865 156.028 76.6865ZM156.028 78.4212C147.364 78.4212 140.058 79.4508 136.521 80.8352C124.451 87.5436 116.329 100.245 116.329 114.789C116.33 136.297 134.106 153.789 156.104 153.789C178.102 153.789 195.88 136.297 195.88 114.789C195.88 100.442 187.977 87.8886 176.176 81.1113C174.655 80.3904 171.995 79.7059 168.452 79.2089C164.918 78.7133 160.644 78.4212 156.028 78.4212Z" fill="#2EC27E"/>
<path fill-rule="evenodd" clip-rule="evenodd" d="M56.4377 43.9726C44.3418 45.0723 41.6244 54.1446 41.7413 59.3553C38.6814 57.386 36.0671 59.1241 35.0873 60.3343C37.3914 61.9026 39.354 62.3172 41.9569 60.2907C42.222 60.2411 42.4839 60.1897 42.7423 60.1363C41.6754 61.553 40.6944 64.4274 43.5935 67.1212C45.5929 64.0833 45.0857 62.122 43.2894 60.0189C51.0479 58.2915 55.6339 54.5362 56.4377 43.9726Z" fill="#26A269"/>
<path d="M52.0836 47.2083C52.0836 46.5889 52.5858 46.0868 53.2052 46.0868V46.0868C53.8246 46.0868 54.3267 46.5889 54.3267 47.2083V47.2083C54.3267 47.8278 53.8246 48.3299 53.2052 48.3299V48.3299C52.5858 48.3299 52.0836 47.8278 52.0836 47.2083V47.2083Z" fill="white"/>
<path fill-rule="evenodd" clip-rule="evenodd" d="M115.053 31.999C106.36 15.9031 92.1877 17.5187 85.0424 20.7695C85.9551 15.3654 81.9987 12.7761 79.7423 12.1369C78.9368 16.2567 79.5262 19.2198 83.875 21.6224C84.1008 21.9601 84.3272 22.2924 84.5544 22.6183C81.9605 21.9811 77.399 22.3267 75.3879 27.9376C80.7793 28.9051 83.1942 27.0402 85.0413 23.3064C92.0323 33.0246 99.9503 37.1481 115.053 31.999Z" fill="#26A269"/>
<path d="M107.992 27.8885C108.849 27.5213 109.842 27.9189 110.209 28.7765V28.7765C110.577 29.6342 110.179 30.6271 109.321 30.9943V30.9943C108.464 31.3615 107.471 30.9639 107.104 30.1063V30.1063C106.736 29.2486 107.134 28.2557 107.992 27.8885V27.8885Z" fill="white"/>
<path fill-rule="evenodd" clip-rule="evenodd" d="M160.733 80.157C162.007 61.9081 149.171 55.686 141.396 54.6067C145.06 50.5308 143.104 46.2258 141.54 44.478C138.655 47.5267 137.566 50.3449 139.953 54.7023C139.963 55.1084 139.977 55.5102 139.994 55.9072C138.144 53.9803 134.106 51.8304 129.404 55.4931C133.44 59.1964 136.478 58.914 140.037 56.749C140.74 68.6999 145.22 76.4215 160.733 80.157Z" fill="#26A269"/>
<path d="M156.969 72.9051C157.89 73.0541 158.516 73.9214 158.367 74.8424V74.8424C158.218 75.7634 157.351 76.3892 156.43 76.2402V76.2402C155.509 76.0913 154.883 75.2239 155.032 74.303V74.303C155.181 73.382 156.048 72.7561 156.969 72.9051V72.9051Z" fill="white"/>
<path fill-rule="evenodd" clip-rule="evenodd" d="M129.201 119.551C150.914 101.093 170.577 111.445 179.115 120.201C180.842 111.839 188.049 110.315 191.686 110.661C190.528 117.098 187.999 121.067 180.328 122.098C179.809 122.461 179.293 122.816 178.779 123.16C182.905 123.701 189.332 126.779 189.082 136.061C180.708 134.42 178.256 130.349 177.683 123.884C162.044 134.044 148.219 135.558 129.201 119.551Z" fill="#26A269"/>
<path d="M141.774 117.572C140.737 116.555 139.07 116.571 138.053 117.609V117.609C137.035 118.647 137.052 120.313 138.089 121.33V121.33C139.127 122.348 140.793 122.332 141.811 121.294V121.294C142.828 120.256 142.812 118.59 141.774 117.572V117.572Z" fill="white"/>
</svg>
