<svg width="648" height="310" viewBox="0 0 648 310" fill="none" xmlns="http://www.w3.org/2000/svg">
<path fill-rule="evenodd" clip-rule="evenodd" d="M346.158 190.147C346.158 188.364 345.951 186.628 345.561 184.963H362.811V217.153H284.243V184.963H301.493C301.103 186.628 300.896 188.364 300.896 190.147C300.896 202.646 311.029 212.778 323.527 212.778C336.026 212.778 346.158 202.646 346.158 190.147Z" fill="#26823B" fill-opacity="0.8"/>
<path fill-rule="evenodd" clip-rule="evenodd" d="M362.811 217.153H284.243V233.388H362.811V217.153Z" fill="#26823B" fill-opacity="0.6"/>
<path d="M174.839 7C174.839 5.89543 175.734 5 176.839 5H470.216C471.32 5 472.216 5.89543 472.216 7V182.963C472.216 184.068 471.32 184.963 470.216 184.963H176.839C175.734 184.963 174.839 184.068 174.839 182.963V7Z" fill="#26823B" fill-opacity="0.15"/>
<path d="M174.839 182.963C174.839 184.067 175.734 184.963 176.839 184.963H470.216L470.42 184.953C471.361 184.858 472.109 184.109 472.205 183.168L472.216 182.963V7C472.216 5.96441 471.428 5.11309 470.42 5.01074L470.216 5V0C474.082 0.000101401 477.216 3.13405 477.216 7V182.963C477.216 186.829 474.082 189.963 470.216 189.963H176.839C172.973 189.963 169.839 186.829 169.839 182.963V7C169.839 3.13402 172.973 0 176.839 0V5L176.635 5.01074C175.626 5.113 174.839 5.96435 174.839 7V182.963ZM470.216 0V5H176.839V0H470.216Z" fill="#26823B"/>
<rect x="334.312" y="27.0368" width="101.451" height="10.5053" rx="2" transform="rotate(8.66236 334.312 27.0368)" fill="#26823B" fill-opacity="0.2"/>
<path d="M336.676 31.443C336.759 30.897 337.269 30.5218 337.815 30.605L340.296 30.983C340.842 31.0662 341.217 31.5762 341.134 32.1222L340.756 34.599C340.673 35.1449 340.163 35.5201 339.617 35.4369L337.136 35.059C336.59 34.9758 336.215 34.4658 336.298 33.9198L336.676 31.443Z" fill="#26823B" fill-opacity="0.5"/>
<path d="M343.111 32.4234C343.194 31.8775 343.704 31.5023 344.25 31.5855L392.503 38.9368C393.049 39.02 393.425 39.53 393.341 40.076L392.964 42.5528C392.881 43.0987 392.371 43.4739 391.825 43.3907L343.572 36.0394C343.026 35.9562 342.65 35.4462 342.734 34.9002L343.111 32.4234Z" fill="#26823B"/>
<path d="M395.319 40.3772C395.402 39.8312 395.912 39.456 396.458 39.5392L398.939 39.9172C399.485 40.0004 399.86 40.5104 399.777 41.0564L399.399 43.5332C399.316 44.0791 398.806 44.4543 398.26 44.3711L395.779 43.9932C395.233 43.91 394.858 43.4 394.941 42.854L395.319 40.3772Z" fill="#26823B"/>
<path d="M401.754 41.3576C401.837 40.8116 402.347 40.4364 402.893 40.5196L405.374 40.8976C405.92 40.9808 406.295 41.4908 406.212 42.0368L405.835 44.5136C405.752 45.0596 405.242 45.4347 404.696 45.3516L402.215 44.9736C401.669 44.8904 401.293 44.3804 401.377 43.8344L401.754 41.3576Z" fill="#26823B" fill-opacity="0.7"/>
<path d="M408.189 42.3381C408.272 41.7921 408.782 41.4169 409.328 41.5001L423.765 43.6994C424.311 43.7826 424.686 44.2927 424.603 44.8386L424.225 47.3154C424.142 47.8614 423.632 48.2366 423.086 48.1534L408.65 45.954C408.104 45.8708 407.729 45.3608 407.812 44.8148L408.189 42.3381Z" fill="#26823B" fill-opacity="0.7"/>
<path fill-rule="evenodd" clip-rule="evenodd" d="M430.888 46.8077C431.054 45.7157 430.304 44.6956 429.212 44.5292L428.708 44.4525C427.616 44.2861 426.596 45.0365 426.429 46.1285L426.353 46.628C426.187 47.72 426.937 48.7401 428.029 48.9065L428.533 48.9832C429.625 49.1496 430.645 48.3992 430.811 47.3072L430.888 46.8077ZM429.734 46.8876C429.68 47.2575 428.088 47.782 427.916 47.5978C427.745 47.4136 427.941 45.7829 428.21 45.6682C428.48 45.5535 429.788 46.5176 429.734 46.8876Z" fill="#26823B"/>
<path d="M212.448 62.4781C212.448 61.3735 213.343 60.4781 214.448 60.4781H372.213C373.317 60.4781 374.213 61.3735 374.213 62.4781V156.373C374.213 157.478 373.317 158.373 372.213 158.373H214.448C213.343 158.373 212.448 157.478 212.448 156.373V62.4781Z" fill="#26823B" fill-opacity="0.4"/>
<path d="M211.448 156.373V62.4781C211.448 60.8213 212.791 59.4781 214.448 59.4781V60.4781L214.244 60.4889C213.235 60.5911 212.448 61.4425 212.448 62.4781V156.373C212.448 157.408 213.235 158.261 214.244 158.363L214.448 158.373H372.213C373.317 158.373 374.213 157.477 374.213 156.373V62.4781C374.213 61.3735 373.317 60.4781 372.213 60.4781V59.4781C373.869 59.4781 375.213 60.8213 375.213 62.4781V156.373C375.213 158.03 373.869 159.373 372.213 159.373H214.448C212.791 159.373 211.448 158.03 211.448 156.373ZM372.213 59.4781V60.4781H214.448V59.4781H372.213Z" fill="#26823B"/>
<path d="M212.448 62.4781C212.448 61.3735 213.343 60.4781 214.448 60.4781H256.053C257.158 60.4781 258.053 61.3735 258.053 62.4781V156.373C258.053 157.478 257.158 158.373 256.053 158.373H214.448C213.343 158.373 212.448 157.478 212.448 156.373V62.4781Z" fill="#26823B" fill-opacity="0.4"/>
<path d="M0 233.388H647.054V246.916H0V233.388Z" fill="#26823B"/>
<path d="M75.5793 309.301L75.5793 246.916L89.1076 246.916L89.1076 309.301L75.5793 309.301Z" fill="url(#paint0_linear_2025_504)"/>
<path d="M557.947 309.301L557.947 246.916L571.475 246.916L571.475 309.301L557.947 309.301Z" fill="url(#paint1_linear_2025_504)"/>
<path d="M215.231 64.7082C215.231 64.1559 215.678 63.7082 216.231 63.7082H217.402C217.954 63.7082 218.402 64.1559 218.402 64.7082V65.7786C218.402 66.3309 217.954 66.7786 217.402 66.7786H216.231C215.678 66.7786 215.231 66.3309 215.231 65.7786V64.7082Z" fill="#26823B"/>
<path d="M229.401 64.7082C229.401 64.1559 229.849 63.7082 230.401 63.7082H240.011C240.564 63.7082 241.011 64.1559 241.011 64.7082V65.7786C241.011 66.3309 240.564 66.7786 240.011 66.7786H230.401C229.849 66.7786 229.401 66.3309 229.401 65.7786V64.7082Z" fill="#26823B"/>
<path d="M277.235 63.9907C277.235 63.4384 277.683 62.9907 278.235 62.9907H327.045C327.597 62.9907 328.045 63.4384 328.045 63.9907V66.4961C328.045 67.0484 327.597 67.4961 327.045 67.4961H278.235C277.683 67.4961 277.235 67.0484 277.235 66.4961V63.9907Z" fill="#26823B"/>
<path d="M260.79 71.0562C260.79 70.5039 261.237 70.0562 261.79 70.0562H353.274C353.826 70.0562 354.274 70.5039 354.274 71.0562V73.5615C354.274 74.1138 353.826 74.5615 353.274 74.5615H261.79C261.237 74.5615 260.79 74.1138 260.79 73.5615V71.0562Z" fill="#26823B"/>
<path d="M297.059 152.606C297.059 152.053 297.507 151.606 298.059 151.606H334.206C334.758 151.606 335.206 152.053 335.206 152.606V155.111C335.206 155.663 334.758 156.111 334.206 156.111H298.059C297.507 156.111 297.059 155.663 297.059 155.111V152.606Z" fill="#26823B"/>
<path d="M356.942 152.606C356.942 152.053 357.39 151.606 357.942 151.606H370.476C371.028 151.606 371.476 152.053 371.476 152.606V155.111C371.476 155.663 371.028 156.111 370.476 156.111H357.942C357.39 156.111 356.942 155.663 356.942 155.111V152.606Z" fill="#26823B"/>
<path d="M260.79 152.606C260.79 152.053 261.237 151.606 261.79 151.606H270.588C271.14 151.606 271.588 152.053 271.588 152.606V155.111C271.588 155.663 271.14 156.111 270.588 156.111H261.79C261.237 156.111 260.79 155.663 260.79 155.111V152.606Z" fill="#26823B" fill-opacity="0.4"/>
<path d="M371.476 71.0562C371.476 70.5039 371.028 70.0562 370.476 70.0562H356.979C356.427 70.0562 355.979 70.5039 355.979 71.0562V73.5615C355.979 74.1138 356.427 74.5615 356.979 74.5615H370.476C371.028 74.5615 371.476 74.1138 371.476 73.5615V71.0562Z" fill="#26823B"/>
<path d="M329.803 63.9907C329.803 63.4384 330.25 62.9907 330.803 62.9907H333.312C333.865 62.9907 334.312 63.4384 334.312 63.9907V66.4961C334.312 67.0484 333.865 67.4961 333.312 67.4961H330.803C330.25 67.4961 329.803 67.0484 329.803 66.4961V63.9907Z" fill="#26823B"/>
<path d="M336.07 63.9907C336.07 63.4384 336.518 62.9907 337.07 62.9907H339.58C340.132 62.9907 340.58 63.4384 340.58 63.9907V66.4961C340.58 67.0484 340.132 67.4961 339.58 67.4961H337.07C336.518 67.4961 336.07 67.0484 336.07 66.4961V63.9907Z" fill="#26823B"/>
<path d="M366.966 63.9907C366.966 63.4384 367.414 62.9907 367.966 62.9907H370.476C371.028 62.9907 371.476 63.4384 371.476 63.9907V66.4961C371.476 67.0484 371.028 67.4961 370.476 67.4961H367.966C367.414 67.4961 366.966 67.0484 366.966 66.4961V63.9907Z" fill="#26823B" fill-opacity="0.5"/>
<path fill-rule="evenodd" clip-rule="evenodd" d="M365.208 64.9907C365.208 63.8862 364.313 62.9907 363.208 62.9907H362.699C361.594 62.9907 360.699 63.8862 360.699 64.9907V65.4961C360.699 66.6006 361.594 67.4961 362.699 67.4961H363.208C364.313 67.4961 365.208 66.6006 365.208 65.4961V64.9907ZM364.081 65.2434C364.083 65.6172 362.588 66.3756 362.39 66.2193C362.193 66.0631 362.141 64.4215 362.39 64.2675C362.639 64.1135 364.078 64.8696 364.081 65.2434Z" fill="#26823B"/>
<path d="M342.338 63.9907C342.338 63.4384 342.786 62.9907 343.338 62.9907H357.941C358.493 62.9907 358.941 63.4384 358.941 63.9907V66.4961C358.941 67.0484 358.493 67.4961 357.941 67.4961H343.338C342.786 67.4961 342.338 67.0484 342.338 66.4961V63.9907Z" fill="#26823B"/>
<path d="M252.011 64.7082C252.011 64.1559 252.459 63.7082 253.011 63.7082H254.182C254.735 63.7082 255.182 64.1559 255.182 64.7082V65.7786C255.182 66.3309 254.735 66.7786 254.182 66.7786H253.011C252.459 66.7786 252.011 66.3309 252.011 65.7786V64.7082Z" fill="#26823B"/>
<path d="M215.249 74.4393C215.249 73.887 215.697 73.4393 216.249 73.4393H254.252C254.805 73.4393 255.252 73.887 255.252 74.4393V81.0884C255.252 81.6407 254.805 82.0884 254.252 82.0884H216.249C215.697 82.0884 215.249 81.6407 215.249 81.0884V74.4393Z" fill="#26823B"/>
<path opacity="0.5" d="M260.79 78.1215C260.79 77.5692 261.237 77.1215 261.79 77.1215H370.476C371.028 77.1215 371.476 77.5692 371.476 78.1215V84.7706C371.476 85.3229 371.028 85.7706 370.476 85.7706H261.79C261.237 85.7706 260.79 85.3229 260.79 84.7706V78.1215Z" fill="#26823B" fill-opacity="0.7"/>
<path opacity="0.5" d="M260.79 89.3306C260.79 88.7783 261.237 88.3306 261.79 88.3306H370.476C371.028 88.3306 371.476 88.7783 371.476 89.3306V95.9797C371.476 96.532 371.028 96.9797 370.476 96.9797H261.79C261.237 96.9797 260.79 96.532 260.79 95.9797V89.3306Z" fill="#26823B" fill-opacity="0.7"/>
<path d="M260.79 100.54C260.79 99.9874 261.237 99.5397 261.79 99.5397H370.476C371.028 99.5397 371.476 99.9874 371.476 100.54V107.189C371.476 107.741 371.028 108.189 370.476 108.189H261.79C261.237 108.189 260.79 107.741 260.79 107.189V100.54Z" fill="#26823B" fill-opacity="0.7"/>
<path d="M260.79 122.958C260.79 122.406 261.237 121.958 261.79 121.958H370.476C371.028 121.958 371.476 122.406 371.476 122.958V129.607C371.476 130.159 371.028 130.607 370.476 130.607H261.79C261.237 130.607 260.79 130.159 260.79 129.607V122.958Z" fill="#26823B" fill-opacity="0.7"/>
<path opacity="0.5" d="M260.79 111.749C260.79 111.196 261.237 110.749 261.79 110.749H370.476C371.028 110.749 371.476 111.196 371.476 111.749V118.398C371.476 118.95 371.028 119.398 370.476 119.398H261.79C261.237 119.398 260.79 118.95 260.79 118.398V111.749Z" fill="#26823B" fill-opacity="0.7"/>
<path d="M215.249 85.0884C215.249 84.5361 215.697 84.0884 216.249 84.0884H254.252C254.805 84.0884 255.252 84.5361 255.252 85.0884V91.7375C255.252 92.2898 254.805 92.7375 254.252 92.7375H216.249C215.697 92.7375 215.249 92.2898 215.249 91.7375V85.0884Z" fill="#26823B"/>
<path d="M215.249 95.7375C215.249 95.1852 215.697 94.7375 216.249 94.7375H254.252C254.805 94.7375 255.252 95.1852 255.252 95.7375V102.387C255.252 102.939 254.805 103.387 254.252 103.387H216.249C215.697 103.387 215.249 102.939 215.249 102.387V95.7375Z" fill="#26823B"/>
<path d="M215.249 106.387C215.249 105.834 215.697 105.387 216.249 105.387H254.252C254.805 105.387 255.252 105.834 255.252 106.387V113.036C255.252 113.588 254.805 114.036 254.252 114.036H216.249C215.697 114.036 215.249 113.588 215.249 113.036V106.387Z" fill="#26823B"/>
<path d="M215.249 148.445C215.249 147.892 215.697 147.445 216.249 147.445H254.252C254.805 147.445 255.252 147.892 255.252 148.445V155.094C255.252 155.646 254.805 156.094 254.252 156.094H216.249C215.697 156.094 215.249 155.646 215.249 155.094V148.445Z" fill="#26823B"/>
<path d="M212.448 145.391C212.448 145.458 212.502 145.513 212.57 145.513H257.931C257.999 145.513 258.053 145.458 258.053 145.391V145.391C258.053 145.324 257.999 145.269 257.931 145.269H212.57C212.502 145.269 212.448 145.324 212.448 145.391V145.391Z" fill="#26823B"/>
<path d="M424.174 57.8221L421.701 57.8348C420.93 61.7101 418.409 64.4803 414.897 66.3797C411.273 68.3394 406.568 69.3915 401.543 69.8123C391.49 70.6541 379.985 68.9842 372.824 66.7918L373.117 65.8358C380.169 67.9946 391.545 69.6453 401.459 68.8152C406.417 68.4001 410.968 67.3673 414.421 65.4998C417.677 63.7387 419.932 61.2518 420.678 57.8406L418.401 57.8533L421.26 52.8377L424.174 57.8221Z" fill="#26823B"/>
<defs>
<linearGradient id="paint0_linear_2025_504" x1="82.3435" y1="246.916" x2="82.3435" y2="309.301" gradientUnits="userSpaceOnUse">
<stop offset="0.0673077" stop-color="#26823B"/>
<stop offset="0.384615" stop-color="#26823B" stop-opacity="0.185185"/>
<stop offset="0.586538" stop-color="#26823B" stop-opacity="0"/>
</linearGradient>
<linearGradient id="paint1_linear_2025_504" x1="564.711" y1="246.916" x2="564.711" y2="309.301" gradientUnits="userSpaceOnUse">
<stop offset="0.0673077" stop-color="#26823B"/>
<stop offset="0.384615" stop-color="#26823B" stop-opacity="0.185185"/>
<stop offset="0.586538" stop-color="#26823B" stop-opacity="0"/>
</linearGradient>
</defs>
</svg>
