<svg width="648" height="310" viewBox="0 0 648 310" fill="none" xmlns="http://www.w3.org/2000/svg">
<path fill-rule="evenodd" clip-rule="evenodd" d="M346.158 190.147C346.158 188.364 345.951 186.628 345.561 184.963H362.811V217.153H284.243V184.963H301.493C301.103 186.628 300.896 188.364 300.896 190.147C300.896 202.646 311.029 212.778 323.527 212.778C336.026 212.778 346.158 202.646 346.158 190.147Z" fill="#26823B" fill-opacity="0.8"/>
<path fill-rule="evenodd" clip-rule="evenodd" d="M362.811 217.153H284.243V233.388H362.811V217.153Z" fill="#26823B" fill-opacity="0.6"/>
<path d="M174.839 7C174.839 5.89543 175.734 5 176.839 5H470.215C471.32 5 472.215 5.89543 472.215 7V182.963C472.215 184.068 471.32 184.963 470.215 184.963H176.839C175.734 184.963 174.839 184.068 174.839 182.963V7Z" fill="#26823B" fill-opacity="0.15"/>
<path d="M174.839 182.963C174.839 184.067 175.734 184.963 176.839 184.963H470.216L470.42 184.953C471.361 184.858 472.109 184.109 472.205 183.168L472.216 182.963V7C472.216 5.96441 471.428 5.11309 470.42 5.01074L470.216 5V0C474.081 0.000101401 477.216 3.13405 477.216 7V182.963C477.216 186.829 474.081 189.963 470.216 189.963H176.839C172.973 189.963 169.839 186.829 169.839 182.963V7C169.839 3.13402 172.973 0 176.839 0V5L176.635 5.01074C175.626 5.113 174.839 5.96435 174.839 7V182.963ZM470.216 0V5H176.839V0H470.216Z" fill="#26823B"/>
<rect x="306.07" y="9.18744" width="147.247" height="15.2476" rx="2" transform="rotate(5.6765 306.07 9.18744)" fill="#26823B" fill-opacity="0.2"/>
<path d="M309.828 15.3953C309.908 14.5976 310.619 14.0153 311.416 14.0946L315.041 14.4548C315.838 14.5341 316.421 15.245 316.342 16.0427L315.982 19.6611C315.903 20.4588 315.192 21.0412 314.394 20.9619L310.769 20.6016C309.972 20.5223 309.389 19.8114 309.469 19.0137L309.828 15.3953Z" fill="#26823B" fill-opacity="0.5"/>
<path d="M319.23 16.3298C319.309 15.5322 320.02 14.9498 320.818 15.0291L391.314 22.0363C392.111 22.1156 392.694 22.8265 392.615 23.6242L392.255 27.2426C392.176 28.0403 391.465 28.6226 390.667 28.5433L320.171 21.5361C319.373 21.4568 318.791 20.7459 318.87 19.9483L319.23 16.3298Z" fill="#26823B"/>
<path d="M395.503 23.9113C395.582 23.1136 396.293 22.5313 397.091 22.6105L400.715 22.9708C401.513 23.0501 402.095 23.761 402.016 24.5587L401.657 28.1771C401.577 28.9748 400.866 29.5571 400.069 29.4779L396.444 29.1176C395.646 29.0383 395.064 28.3274 395.143 27.5297L395.503 23.9113Z" fill="#26823B"/>
<path d="M404.905 24.8458C404.984 24.0482 405.695 23.4658 406.493 23.5451L410.117 23.9054C410.915 23.9846 411.497 24.6956 411.418 25.4932L411.058 29.1117C410.979 29.9093 410.268 30.4917 409.47 30.4124L405.846 30.0521C405.048 29.9728 404.466 29.2619 404.545 28.4643L404.905 24.8458Z" fill="#26823B" fill-opacity="0.7"/>
<path d="M414.307 25.7803C414.386 24.9827 415.097 24.4003 415.894 24.4796L436.985 26.576C437.783 26.6553 438.365 27.3662 438.286 28.1639L437.926 31.7823C437.847 32.58 437.136 33.1623 436.339 33.0831L415.248 30.9866C414.45 30.9073 413.868 30.1964 413.947 29.3988L414.307 25.7803Z" fill="#26823B" fill-opacity="0.7"/>
<path fill-rule="evenodd" clip-rule="evenodd" d="M447.544 30.5427C447.703 28.9474 446.538 27.5256 444.943 27.367L444.207 27.2938C442.612 27.1353 441.19 28.3 441.031 29.8953L440.959 30.6252C440.8 32.2205 441.965 33.6423 443.56 33.8009L444.296 33.874C445.891 34.0326 447.313 32.8679 447.472 31.2726L447.544 30.5427ZM445.879 30.7457C445.829 31.286 443.56 32.1666 443.298 31.9126C443.035 31.6585 443.196 29.2801 443.578 29.0935C443.96 28.9069 445.929 30.2054 445.879 30.7457Z" fill="#26823B"/>
<path d="M0 233.388H647.054V246.916H0V233.388Z" fill="#26823B"/>
<path d="M75.5793 309.301L75.5793 246.916L89.1076 246.916L89.1076 309.301L75.5793 309.301Z" fill="url(#paint0_linear_2026_648)"/>
<path d="M557.947 309.301L557.947 246.916L571.475 246.916L571.475 309.301L557.947 309.301Z" fill="url(#paint1_linear_2026_648)"/>
<path d="M225.763 53.0124C225.763 51.647 226.87 50.5401 228.236 50.5401H423.255C424.621 50.5401 425.728 51.647 425.728 53.0124V169.08C425.728 170.445 424.621 171.552 423.255 171.552H228.236C226.87 171.552 225.763 170.445 225.763 169.08V53.0124Z" fill="#26823B" fill-opacity="0.4"/>
<path d="M224.527 169.079V53.0124C224.527 50.9643 226.187 49.304 228.236 49.304V50.5401L227.983 50.5534C226.736 50.6798 225.763 51.7322 225.763 53.0124V169.079C225.763 170.36 226.736 171.413 227.983 171.54L228.236 171.552H423.255C424.621 171.552 425.727 170.445 425.727 169.079V53.0124C425.727 51.647 424.621 50.5401 423.255 50.5401V49.304C425.303 49.304 426.964 50.9643 426.964 53.0124V169.079C426.964 171.128 425.303 172.788 423.255 172.788H228.236C226.187 172.788 224.527 171.128 224.527 169.079ZM423.255 49.304V50.5401H228.236V49.304H423.255Z" fill="#26823B"/>
<path d="M225.763 53.0124C225.763 51.647 226.87 50.5401 228.236 50.5401H279.666C281.031 50.5401 282.138 51.647 282.138 53.0124V169.08C282.138 170.445 281.031 171.552 279.666 171.552H228.236C226.87 171.552 225.763 170.445 225.763 169.08V53.0124Z" fill="#26823B" fill-opacity="0.4"/>
<path d="M229.203 55.7691C229.203 55.0864 229.756 54.533 230.439 54.533H231.887C232.569 54.533 233.123 55.0864 233.123 55.7691V57.0923C233.123 57.775 232.569 58.3284 231.887 58.3284H230.439C229.756 58.3284 229.203 57.775 229.203 57.0923V55.7691Z" fill="#26823B"/>
<path d="M246.721 55.7691C246.721 55.0864 247.274 54.533 247.957 54.533H259.836C260.519 54.533 261.072 55.0864 261.072 55.7691V57.0923C261.072 57.775 260.519 58.3284 259.836 58.3284H247.957C247.274 58.3284 246.721 57.775 246.721 57.0923V55.7691Z" fill="#26823B"/>
<path d="M305.849 54.8822C305.849 54.1995 306.403 53.6461 307.086 53.6461H367.422C368.104 53.6461 368.658 54.1995 368.658 54.8822V57.9792C368.658 58.6619 368.104 59.2153 367.422 59.2153H307.086C306.403 59.2153 305.849 58.6619 305.849 57.9792V54.8822Z" fill="#26823B"/>
<path d="M285.521 63.6161C285.521 62.9334 286.074 62.38 286.757 62.38H399.845C400.527 62.38 401.081 62.9334 401.081 63.6161V66.7131C401.081 67.3958 400.527 67.9492 399.845 67.9492H286.757C286.074 67.9492 285.521 67.3958 285.521 66.7131V63.6161Z" fill="#26823B"/>
<path d="M330.355 164.423C330.355 163.74 330.909 163.187 331.591 163.187H376.274C376.957 163.187 377.51 163.74 377.51 164.423V167.52C377.51 168.202 376.956 168.756 376.274 168.756H331.591C330.909 168.756 330.355 168.202 330.355 167.52V164.423Z" fill="#26823B"/>
<path d="M404.379 164.423C404.379 163.74 404.932 163.187 405.615 163.187H421.108C421.791 163.187 422.345 163.74 422.345 164.423V167.52C422.345 168.202 421.791 168.756 421.108 168.756H405.615C404.932 168.756 404.379 168.202 404.379 167.52V164.423Z" fill="#26823B"/>
<path d="M285.521 164.423C285.521 163.74 286.074 163.187 286.757 163.187H297.633C298.316 163.187 298.869 163.74 298.869 164.423V167.52C298.869 168.202 298.316 168.756 297.633 168.756H286.757C286.074 168.756 285.521 168.202 285.521 167.52V164.423Z" fill="#26823B" fill-opacity="0.4"/>
<path d="M422.345 63.6161C422.345 62.9334 421.791 62.38 421.109 62.38H404.425C403.742 62.38 403.189 62.9334 403.189 63.6161V66.7131C403.189 67.3958 403.742 67.9492 404.425 67.9492H421.109C421.791 67.9492 422.345 67.3958 422.345 66.7131V63.6161Z" fill="#26823B"/>
<path d="M370.831 54.8822C370.831 54.1995 371.384 53.6461 372.067 53.6461H375.169C375.852 53.6461 376.405 54.1995 376.405 54.8822V57.9792C376.405 58.6619 375.852 59.2153 375.169 59.2153H372.067C371.384 59.2153 370.831 58.6619 370.831 57.9792V54.8822Z" fill="#26823B"/>
<path d="M378.578 54.8822C378.578 54.1995 379.132 53.6461 379.814 53.6461H382.917C383.599 53.6461 384.153 54.1995 384.153 54.8822V57.9792C384.153 58.6619 383.599 59.2153 382.917 59.2153H379.814C379.132 59.2153 378.578 58.6619 378.578 57.9792V54.8822Z" fill="#26823B"/>
<path d="M416.77 54.8822C416.77 54.1995 417.324 53.6461 418.006 53.6461H421.109C421.791 53.6461 422.345 54.1995 422.345 54.8822V57.9792C422.345 58.6619 421.791 59.2153 421.109 59.2153H418.006C417.324 59.2153 416.77 58.6619 416.77 57.9792V54.8822Z" fill="#26823B" fill-opacity="0.5"/>
<path fill-rule="evenodd" clip-rule="evenodd" d="M414.597 56.1183C414.597 54.7529 413.49 53.6461 412.125 53.6461H411.495C410.129 53.6461 409.023 54.7529 409.023 56.1183V56.743C409.023 58.1084 410.129 59.2153 411.495 59.2153H412.125C413.49 59.2153 414.597 58.1084 414.597 56.743V56.1183ZM413.203 56.4307C413.206 56.8928 411.358 57.8302 411.113 57.6371C410.869 57.4439 410.805 55.4147 411.113 55.2243C411.421 55.034 413.2 55.9686 413.203 56.4307Z" fill="#26823B"/>
<path d="M386.326 54.8822C386.326 54.1995 386.879 53.6461 387.562 53.6461H405.613C406.296 53.6461 406.849 54.1995 406.849 54.8822V57.9792C406.849 58.6619 406.296 59.2153 405.613 59.2153H387.562C386.879 59.2153 386.326 58.6619 386.326 57.9792V54.8822Z" fill="#26823B"/>
<path d="M274.67 55.7691C274.67 55.0864 275.223 54.533 275.906 54.533H277.353C278.036 54.533 278.589 55.0864 278.589 55.7691V57.0923C278.589 57.775 278.036 58.3284 277.353 58.3284H275.906C275.223 58.3284 274.67 57.775 274.67 57.0923V55.7691Z" fill="#26823B"/>
<path d="M229.226 67.7981C229.226 67.1154 229.779 66.562 230.462 66.562H277.439C278.122 66.562 278.676 67.1154 278.676 67.7981V76.0174C278.676 76.7001 278.122 77.2535 277.439 77.2535H230.462C229.779 77.2535 229.226 76.7001 229.226 76.0174V67.7981Z" fill="#26823B"/>
<path opacity="0.5" d="M285.521 72.3499C285.521 71.6672 286.074 71.1137 286.757 71.1137H421.109C421.791 71.1137 422.345 71.6672 422.345 72.3499V80.5691C422.345 81.2518 421.791 81.8052 421.109 81.8052H286.757C286.074 81.8052 285.521 81.2518 285.521 80.5691V72.3499Z" fill="#26823B" fill-opacity="0.7"/>
<path opacity="0.5" d="M285.521 86.2059C285.521 85.5232 286.074 84.9697 286.757 84.9697H421.109C421.791 84.9697 422.345 85.5232 422.345 86.2059V94.4251C422.345 95.1078 421.791 95.6613 421.109 95.6613H286.757C286.074 95.6613 285.521 95.1078 285.521 94.4251V86.2059Z" fill="#26823B" fill-opacity="0.7"/>
<path d="M285.521 100.062C285.521 99.3792 286.074 98.8258 286.757 98.8258H421.109C421.791 98.8258 422.345 99.3792 422.345 100.062V108.281C422.345 108.964 421.791 109.517 421.109 109.517H286.757C286.074 109.517 285.521 108.964 285.521 108.281V100.062Z" fill="#26823B" fill-opacity="0.7"/>
<path d="M285.521 127.774C285.521 127.091 286.074 126.538 286.757 126.538H421.109C421.791 126.538 422.345 127.091 422.345 127.774V135.993C422.345 136.676 421.791 137.229 421.109 137.229H286.757C286.074 137.229 285.521 136.676 285.521 135.993V127.774Z" fill="#26823B" fill-opacity="0.7"/>
<path opacity="0.5" d="M285.521 113.918C285.521 113.235 286.074 112.682 286.757 112.682H421.109C421.791 112.682 422.345 113.235 422.345 113.918V122.137C422.345 122.82 421.791 123.373 421.109 123.373H286.757C286.074 123.373 285.521 122.82 285.521 122.137V113.918Z" fill="#26823B" fill-opacity="0.7"/>
<path d="M229.226 80.9619C229.226 80.2792 229.779 79.7258 230.462 79.7258H277.439C278.122 79.7258 278.676 80.2792 278.676 80.9619V89.1812C278.676 89.8639 278.122 90.4173 277.439 90.4173H230.462C229.779 90.4173 229.226 89.8639 229.226 89.1812V80.9619Z" fill="#26823B"/>
<path d="M229.226 94.1257C229.226 93.443 229.779 92.8896 230.462 92.8896H277.439C278.122 92.8896 278.676 93.443 278.676 94.1257V102.345C278.676 103.028 278.122 103.581 277.439 103.581H230.462C229.779 103.581 229.226 103.028 229.226 102.345V94.1257Z" fill="#26823B"/>
<path d="M229.226 107.29C229.226 106.607 229.779 106.053 230.462 106.053H277.439C278.122 106.053 278.676 106.607 278.676 107.29V115.509C278.676 116.191 278.122 116.745 277.439 116.745H230.462C229.779 116.745 229.226 116.191 229.226 115.509V107.29Z" fill="#26823B"/>
<path d="M229.226 159.279C229.226 158.596 229.779 158.043 230.462 158.043H277.439C278.122 158.043 278.676 158.596 278.676 159.279V167.498C278.676 168.181 278.122 168.735 277.439 168.735H230.462C229.779 168.735 229.226 168.181 229.226 167.498V159.279Z" fill="#26823B"/>
<path d="M225.763 155.505C225.763 155.588 225.831 155.655 225.914 155.655H281.988C282.071 155.655 282.138 155.588 282.138 155.505V155.505C282.138 155.421 282.071 155.354 281.988 155.354H225.914C225.831 155.354 225.763 155.421 225.763 155.505V155.505Z" fill="#26823B"/>
<path d="M443.636 36.085C443.842 36.1834 443.749 36.4941 443.523 36.4637L443.093 36.4058C442.94 36.3851 442.821 36.5389 442.877 36.6835C443.711 38.8603 444.109 41.9773 443.059 43.9978C441.921 46.1884 439.941 48.2921 437.59 50.1907C432.955 53.9332 426.801 56.9402 422.519 58.2907C422.413 58.3239 422.303 58.2641 422.271 58.1585L422.212 57.9681C422.18 57.8625 422.237 57.7512 422.342 57.718C426.56 56.3873 432.644 53.4142 437.213 49.7244C439.533 47.8514 441.442 45.8088 442.527 43.7213C443.455 41.9363 443.279 39.0953 442.659 37.1326C442.6 36.9483 442.35 36.9616 442.301 37.1488L442.23 37.4264C442.173 37.6452 441.854 37.6173 441.837 37.392L441.689 35.4864C441.677 35.3329 441.835 35.2241 441.974 35.2905L443.636 36.085Z" fill="#26823B"/>
<defs>
<linearGradient id="paint0_linear_2026_648" x1="82.3435" y1="246.916" x2="82.3435" y2="309.301" gradientUnits="userSpaceOnUse">
<stop offset="0.0673077" stop-color="#26823B"/>
<stop offset="0.384615" stop-color="#26823B" stop-opacity="0.185185"/>
<stop offset="0.586538" stop-color="#26823B" stop-opacity="0"/>
</linearGradient>
<linearGradient id="paint1_linear_2026_648" x1="564.711" y1="246.916" x2="564.711" y2="309.301" gradientUnits="userSpaceOnUse">
<stop offset="0.0673077" stop-color="#26823B"/>
<stop offset="0.384615" stop-color="#26823B" stop-opacity="0.185185"/>
<stop offset="0.586538" stop-color="#26823B" stop-opacity="0"/>
</linearGradient>
</defs>
</svg>
